<?xml version="1.0" encoding="UTF-8"?>
<!DOCTYPE svg PUBLIC "-//W3C//DTD SVG 1.1//EN" "http://www.w3.org/Graphics/SVG/1.1/DTD/svg11.dtd">
<svg xmlns="http://www.w3.org/2000/svg" version="1.1" width="1300px" height="100px" style="shape-rendering:geometricPrecision; text-rendering:geometricPrecision; image-rendering:optimizeQuality; fill-rule:evenodd; clip-rule:evenodd" xmlns:xlink="http://www.w3.org/1999/xlink">
<g><path style="opacity:0.987" fill="#fefffe" d="M -0.5,-0.5 C 432.833,-0.5 866.167,-0.5 1299.5,-0.5C 1299.5,0.166667 1299.5,0.833333 1299.5,1.5C 1231.48,2.97845 1163.48,5.14511 1095.5,8C 1067.74,8.72103 1040.07,10.721 1012.5,14C 956.018,21.6914 899.685,30.3581 843.5,40C 779.833,51.6667 716.167,63.3333 652.5,75C 616.391,80.9936 580.058,84.8269 543.5,86.5C 489.187,84.102 435.187,78.602 381.5,70C 282.087,52.0979 182.754,33.7646 83.5,15C 55.5397,10.1732 27.5397,5.67321 -0.5,1.5C -0.5,0.833333 -0.5,0.166667 -0.5,-0.5 Z"/></g>
</svg>
